<mxfile host="app.diagrams.net" modified="2023-11-07T16:27:08.149Z" agent="Mozilla/5.0 (Windows NT 10.0; Win64; x64) AppleWebKit/537.36 (KHTML, like Gecko) Chrome/118.0.0.0 Safari/537.36" etag="hoXMIH3qUeH8cU1my6u6" version="21.6.9" type="device" pages="6">
  <diagram id="Z756x43-DZ749pd4I7UL" name="Page-1">
    <mxGraphModel dx="1434" dy="780" grid="1" gridSize="10" guides="1" tooltips="1" connect="1" arrows="1" fold="1" page="1" pageScale="1" pageWidth="850" pageHeight="1100" math="0" shadow="0">
      <root>
        <mxCell id="0" />
        <mxCell id="1" parent="0" />
        <mxCell id="pgGPq2Z8AKNx21E-1-q1-2" value="Konsumen datang" style="strokeWidth=2;html=1;shape=mxgraph.flowchart.terminator;whiteSpace=wrap;" parent="1" vertex="1">
          <mxGeometry x="320" y="40" width="160" height="50" as="geometry" />
        </mxCell>
        <mxCell id="pgGPq2Z8AKNx21E-1-q1-4" value="" style="endArrow=classic;html=1;rounded=0;exitX=0.5;exitY=1;exitDx=0;exitDy=0;exitPerimeter=0;" parent="1" source="pgGPq2Z8AKNx21E-1-q1-2" edge="1">
          <mxGeometry width="50" height="50" relative="1" as="geometry">
            <mxPoint x="330" y="130" as="sourcePoint" />
            <mxPoint x="400" y="130" as="targetPoint" />
          </mxGeometry>
        </mxCell>
        <mxCell id="pgGPq2Z8AKNx21E-1-q1-5" value="Konsumen memilih menu" style="rounded=0;whiteSpace=wrap;html=1;" parent="1" vertex="1">
          <mxGeometry x="320" y="138" width="160" height="61" as="geometry" />
        </mxCell>
        <mxCell id="pgGPq2Z8AKNx21E-1-q1-6" value="" style="endArrow=classic;html=1;rounded=0;exitX=0.5;exitY=1;exitDx=0;exitDy=0;exitPerimeter=0;" parent="1" edge="1">
          <mxGeometry width="50" height="50" relative="1" as="geometry">
            <mxPoint x="400" y="199" as="sourcePoint" />
            <mxPoint x="400" y="250" as="targetPoint" />
          </mxGeometry>
        </mxCell>
        <mxCell id="pgGPq2Z8AKNx21E-1-q1-8" value="Jadi&amp;nbsp;&lt;br&gt;pesan?" style="rhombus;whiteSpace=wrap;html=1;" parent="1" vertex="1">
          <mxGeometry x="327.5" y="259" width="145" height="120" as="geometry" />
        </mxCell>
        <mxCell id="pgGPq2Z8AKNx21E-1-q1-9" value="" style="edgeStyle=segmentEdgeStyle;endArrow=classic;html=1;rounded=0;" parent="1" source="pgGPq2Z8AKNx21E-1-q1-8" edge="1">
          <mxGeometry width="50" height="50" relative="1" as="geometry">
            <mxPoint x="471" y="389" as="sourcePoint" />
            <mxPoint x="411" y="109" as="targetPoint" />
            <Array as="points">
              <mxPoint x="474" y="319" />
              <mxPoint x="561" y="320" />
              <mxPoint x="561" y="109" />
            </Array>
          </mxGeometry>
        </mxCell>
        <mxCell id="pgGPq2Z8AKNx21E-1-q1-10" value="" style="endArrow=classic;html=1;rounded=0;exitX=0.5;exitY=1;exitDx=0;exitDy=0;exitPerimeter=0;" parent="1" edge="1">
          <mxGeometry width="50" height="50" relative="1" as="geometry">
            <mxPoint x="399.5" y="379" as="sourcePoint" />
            <mxPoint x="400" y="410" as="targetPoint" />
          </mxGeometry>
        </mxCell>
        <mxCell id="pgGPq2Z8AKNx21E-1-q1-11" value="Menu Terpilih" style="shape=parallelogram;perimeter=parallelogramPerimeter;whiteSpace=wrap;html=1;fixedSize=1;" parent="1" vertex="1">
          <mxGeometry x="320" y="419" width="160" height="60" as="geometry" />
        </mxCell>
        <mxCell id="pgGPq2Z8AKNx21E-1-q1-13" value="Stok menu&amp;nbsp;&lt;br&gt;masih ada?" style="rhombus;whiteSpace=wrap;html=1;" parent="1" vertex="1">
          <mxGeometry x="327.5" y="540" width="145" height="120" as="geometry" />
        </mxCell>
        <mxCell id="pgGPq2Z8AKNx21E-1-q1-14" value="" style="endArrow=classic;html=1;rounded=0;exitX=0.5;exitY=1;exitDx=0;exitDy=0;exitPerimeter=0;" parent="1" edge="1">
          <mxGeometry width="50" height="50" relative="1" as="geometry">
            <mxPoint x="399.75" y="479" as="sourcePoint" />
            <mxPoint x="400" y="530" as="targetPoint" />
          </mxGeometry>
        </mxCell>
        <mxCell id="pgGPq2Z8AKNx21E-1-q1-15" value="" style="endArrow=classic;html=1;rounded=0;exitX=0.5;exitY=1;exitDx=0;exitDy=0;exitPerimeter=0;" parent="1" edge="1">
          <mxGeometry width="50" height="50" relative="1" as="geometry">
            <mxPoint x="399.75" y="660" as="sourcePoint" />
            <mxPoint x="400" y="690" as="targetPoint" />
          </mxGeometry>
        </mxCell>
        <mxCell id="pgGPq2Z8AKNx21E-1-q1-16" value="Pesanan di proses" style="rounded=0;whiteSpace=wrap;html=1;" parent="1" vertex="1">
          <mxGeometry x="340" y="699" width="120" height="60" as="geometry" />
        </mxCell>
        <mxCell id="pgGPq2Z8AKNx21E-1-q1-17" value="" style="endArrow=classic;html=1;rounded=0;exitX=0.5;exitY=1;exitDx=0;exitDy=0;exitPerimeter=0;" parent="1" edge="1">
          <mxGeometry width="50" height="50" relative="1" as="geometry">
            <mxPoint x="399.75" y="760" as="sourcePoint" />
            <mxPoint x="400" y="810" as="targetPoint" />
          </mxGeometry>
        </mxCell>
        <mxCell id="pgGPq2Z8AKNx21E-1-q1-18" value="Terjadi transaksi&lt;br&gt;di kasir&amp;nbsp;" style="rounded=0;whiteSpace=wrap;html=1;" parent="1" vertex="1">
          <mxGeometry x="340" y="819" width="120" height="60" as="geometry" />
        </mxCell>
        <mxCell id="pgGPq2Z8AKNx21E-1-q1-20" value="" style="endArrow=classic;html=1;rounded=0;exitX=0.5;exitY=1;exitDx=0;exitDy=0;exitPerimeter=0;" parent="1" edge="1">
          <mxGeometry width="50" height="50" relative="1" as="geometry">
            <mxPoint x="399.75" y="879" as="sourcePoint" />
            <mxPoint x="400" y="929" as="targetPoint" />
          </mxGeometry>
        </mxCell>
        <mxCell id="pgGPq2Z8AKNx21E-1-q1-21" value="Konsumen menerima&lt;br&gt;Kwitansi / struk" style="rounded=0;whiteSpace=wrap;html=1;" parent="1" vertex="1">
          <mxGeometry x="340" y="939" width="120" height="60" as="geometry" />
        </mxCell>
        <mxCell id="pgGPq2Z8AKNx21E-1-q1-22" value="" style="endArrow=classic;html=1;rounded=0;exitX=0.5;exitY=1;exitDx=0;exitDy=0;exitPerimeter=0;" parent="1" edge="1">
          <mxGeometry width="50" height="50" relative="1" as="geometry">
            <mxPoint x="399.75" y="999" as="sourcePoint" />
            <mxPoint x="400" y="1049" as="targetPoint" />
          </mxGeometry>
        </mxCell>
        <mxCell id="pgGPq2Z8AKNx21E-1-q1-23" value="Konsumen pergi meninggalkan cafe" style="strokeWidth=2;html=1;shape=mxgraph.flowchart.terminator;whiteSpace=wrap;" parent="1" vertex="1">
          <mxGeometry x="319.5" y="1070" width="160" height="50" as="geometry" />
        </mxCell>
        <mxCell id="pgGPq2Z8AKNx21E-1-q1-25" value="" style="endArrow=classic;html=1;rounded=0;" parent="1" edge="1">
          <mxGeometry width="50" height="50" relative="1" as="geometry">
            <mxPoint x="240" y="170" as="sourcePoint" />
            <mxPoint x="310" y="170" as="targetPoint" />
          </mxGeometry>
        </mxCell>
        <mxCell id="pgGPq2Z8AKNx21E-1-q1-27" value="" style="endArrow=none;html=1;rounded=0;" parent="1" edge="1">
          <mxGeometry width="50" height="50" relative="1" as="geometry">
            <mxPoint x="240" y="600" as="sourcePoint" />
            <mxPoint x="240" y="170" as="targetPoint" />
          </mxGeometry>
        </mxCell>
        <mxCell id="pgGPq2Z8AKNx21E-1-q1-28" value="" style="endArrow=none;html=1;rounded=0;entryX=0;entryY=0.5;entryDx=0;entryDy=0;" parent="1" target="pgGPq2Z8AKNx21E-1-q1-13" edge="1">
          <mxGeometry width="50" height="50" relative="1" as="geometry">
            <mxPoint x="240" y="600" as="sourcePoint" />
            <mxPoint x="290" y="550" as="targetPoint" />
          </mxGeometry>
        </mxCell>
      </root>
    </mxGraphModel>
  </diagram>
  <diagram id="pzgHM-iA_GO_rEAdLJRz" name="Page-3">
    <mxGraphModel dx="554" dy="1556" grid="1" gridSize="10" guides="1" tooltips="1" connect="1" arrows="1" fold="1" page="0" pageScale="1" pageWidth="850" pageHeight="1100" math="0" shadow="0">
      <root>
        <mxCell id="0" />
        <mxCell id="1" parent="0" />
        <mxCell id="xDpnUKjmT7deMHmzU6cJ-1" value="Mulai&amp;nbsp;" style="ellipse;whiteSpace=wrap;html=1;" vertex="1" parent="1">
          <mxGeometry x="1000" y="-720" width="160" height="80" as="geometry" />
        </mxCell>
        <mxCell id="xDpnUKjmT7deMHmzU6cJ-2" value="" style="endArrow=classic;html=1;rounded=0;exitX=0.5;exitY=1;exitDx=0;exitDy=0;" edge="1" parent="1" source="xDpnUKjmT7deMHmzU6cJ-1">
          <mxGeometry width="50" height="50" relative="1" as="geometry">
            <mxPoint x="1040" y="-340" as="sourcePoint" />
            <mxPoint x="1080" y="-590" as="targetPoint" />
          </mxGeometry>
        </mxCell>
        <mxCell id="xDpnUKjmT7deMHmzU6cJ-3" value="Masukan alas, tinggi&amp;nbsp;" style="shape=parallelogram;perimeter=parallelogramPerimeter;whiteSpace=wrap;html=1;fixedSize=1;" vertex="1" parent="1">
          <mxGeometry x="1000" y="-580" width="160" height="60" as="geometry" />
        </mxCell>
        <mxCell id="xDpnUKjmT7deMHmzU6cJ-4" value="" style="endArrow=classic;html=1;rounded=0;exitX=0.5;exitY=1;exitDx=0;exitDy=0;" edge="1" parent="1">
          <mxGeometry width="50" height="50" relative="1" as="geometry">
            <mxPoint x="1080" y="-520" as="sourcePoint" />
            <mxPoint x="1080" y="-470" as="targetPoint" />
          </mxGeometry>
        </mxCell>
        <mxCell id="xDpnUKjmT7deMHmzU6cJ-5" value="Hitung alas * tinggi" style="rounded=0;whiteSpace=wrap;html=1;" vertex="1" parent="1">
          <mxGeometry x="1000" y="-460" width="161" height="60" as="geometry" />
        </mxCell>
        <mxCell id="xDpnUKjmT7deMHmzU6cJ-6" value="" style="endArrow=classic;html=1;rounded=0;exitX=0.5;exitY=1;exitDx=0;exitDy=0;" edge="1" parent="1">
          <mxGeometry width="50" height="50" relative="1" as="geometry">
            <mxPoint x="1080" y="-400" as="sourcePoint" />
            <mxPoint x="1080" y="-350" as="targetPoint" />
          </mxGeometry>
        </mxCell>
        <mxCell id="xDpnUKjmT7deMHmzU6cJ-7" value="Cetak Luas&amp;nbsp;" style="shape=parallelogram;perimeter=parallelogramPerimeter;whiteSpace=wrap;html=1;fixedSize=1;" vertex="1" parent="1">
          <mxGeometry x="1000" y="-340" width="160" height="60" as="geometry" />
        </mxCell>
        <mxCell id="xDpnUKjmT7deMHmzU6cJ-8" value="" style="endArrow=classic;html=1;rounded=0;exitX=0.5;exitY=1;exitDx=0;exitDy=0;" edge="1" parent="1">
          <mxGeometry width="50" height="50" relative="1" as="geometry">
            <mxPoint x="1079.52" y="-280" as="sourcePoint" />
            <mxPoint x="1079.52" y="-230" as="targetPoint" />
          </mxGeometry>
        </mxCell>
        <mxCell id="xDpnUKjmT7deMHmzU6cJ-9" value="Selesai" style="ellipse;whiteSpace=wrap;html=1;" vertex="1" parent="1">
          <mxGeometry x="1001" y="-220" width="160" height="80" as="geometry" />
        </mxCell>
        <mxCell id="xDpnUKjmT7deMHmzU6cJ-10" value="Misal :&amp;nbsp;&lt;br&gt;Alas = 10, tinggi = 5" style="text;html=1;align=center;verticalAlign=middle;resizable=0;points=[];autosize=1;strokeColor=none;fillColor=none;" vertex="1" parent="1">
          <mxGeometry x="1150" y="-660" width="130" height="40" as="geometry" />
        </mxCell>
      </root>
    </mxGraphModel>
  </diagram>
  <diagram id="V01mY8zDv4HSwyUm9S72" name="Page-4">
    <mxGraphModel dx="2588" dy="1622" grid="1" gridSize="10" guides="1" tooltips="1" connect="1" arrows="1" fold="1" page="0" pageScale="1" pageWidth="850" pageHeight="1100" math="0" shadow="0">
      <root>
        <mxCell id="0" />
        <mxCell id="1" parent="0" />
        <mxCell id="9phm-5l3cDTvpldQSCSM-3" value="" style="endArrow=classic;html=1;rounded=0;exitX=0.5;exitY=1;exitDx=0;exitDy=0;" edge="1" parent="1">
          <mxGeometry width="50" height="50" relative="1" as="geometry">
            <mxPoint x="200" y="-1" as="sourcePoint" />
            <mxPoint x="200" y="50" as="targetPoint" />
          </mxGeometry>
        </mxCell>
        <mxCell id="9phm-5l3cDTvpldQSCSM-5" value="Mulai" style="ellipse;whiteSpace=wrap;html=1;" vertex="1" parent="1">
          <mxGeometry x="120" y="-80" width="160" height="80" as="geometry" />
        </mxCell>
        <mxCell id="9phm-5l3cDTvpldQSCSM-6" value="Memilih asal dan tujuan" style="shape=parallelogram;perimeter=parallelogramPerimeter;whiteSpace=wrap;html=1;fixedSize=1;" vertex="1" parent="1">
          <mxGeometry x="120" y="60" width="160" height="60" as="geometry" />
        </mxCell>
        <mxCell id="9phm-5l3cDTvpldQSCSM-7" value="" style="endArrow=classic;html=1;rounded=0;exitX=0.5;exitY=1;exitDx=0;exitDy=0;" edge="1" parent="1">
          <mxGeometry width="50" height="50" relative="1" as="geometry">
            <mxPoint x="199.5" y="120" as="sourcePoint" />
            <mxPoint x="199.5" y="171" as="targetPoint" />
          </mxGeometry>
        </mxCell>
        <mxCell id="9phm-5l3cDTvpldQSCSM-8" value="Memilih jenis&amp;nbsp;&lt;br&gt;perjalanan" style="rhombus;whiteSpace=wrap;html=1;" vertex="1" parent="1">
          <mxGeometry x="135" y="185" width="130" height="110" as="geometry" />
        </mxCell>
        <mxCell id="9phm-5l3cDTvpldQSCSM-9" value="" style="edgeStyle=segmentEdgeStyle;endArrow=classic;html=1;rounded=0;" edge="1" parent="1">
          <mxGeometry width="50" height="50" relative="1" as="geometry">
            <mxPoint x="265" y="240" as="sourcePoint" />
            <mxPoint x="440" y="330" as="targetPoint" />
          </mxGeometry>
        </mxCell>
        <mxCell id="9phm-5l3cDTvpldQSCSM-10" value="" style="endArrow=classic;html=1;rounded=0;exitX=0.5;exitY=1;exitDx=0;exitDy=0;" edge="1" parent="1">
          <mxGeometry width="50" height="50" relative="1" as="geometry">
            <mxPoint x="199.58" y="295" as="sourcePoint" />
            <mxPoint x="200" y="330" as="targetPoint" />
          </mxGeometry>
        </mxCell>
        <mxCell id="9phm-5l3cDTvpldQSCSM-11" value="Pulang - pergi" style="shape=parallelogram;perimeter=parallelogramPerimeter;whiteSpace=wrap;html=1;fixedSize=1;" vertex="1" parent="1">
          <mxGeometry x="120" y="340" width="160" height="60" as="geometry" />
        </mxCell>
        <mxCell id="9phm-5l3cDTvpldQSCSM-12" value="" style="endArrow=classic;html=1;rounded=0;exitX=0.5;exitY=1;exitDx=0;exitDy=0;" edge="1" parent="1">
          <mxGeometry width="50" height="50" relative="1" as="geometry">
            <mxPoint x="199.57999999999998" y="400" as="sourcePoint" />
            <mxPoint x="199.57999999999998" y="451" as="targetPoint" />
          </mxGeometry>
        </mxCell>
        <mxCell id="9phm-5l3cDTvpldQSCSM-13" value="Mengisi tanggal, bulan&lt;br&gt;dan tahun keberangkatan&lt;br&gt;dan tanggal, bulan, tahun&lt;br&gt;kembali&amp;nbsp;" style="shape=parallelogram;perimeter=parallelogramPerimeter;whiteSpace=wrap;html=1;fixedSize=1;" vertex="1" parent="1">
          <mxGeometry x="120" y="460" width="160" height="100" as="geometry" />
        </mxCell>
        <mxCell id="9phm-5l3cDTvpldQSCSM-14" value="" style="endArrow=classic;html=1;rounded=0;exitX=0.5;exitY=1;exitDx=0;exitDy=0;" edge="1" parent="1">
          <mxGeometry width="50" height="50" relative="1" as="geometry">
            <mxPoint x="199.57999999999993" y="560" as="sourcePoint" />
            <mxPoint x="199.57999999999993" y="611" as="targetPoint" />
          </mxGeometry>
        </mxCell>
        <mxCell id="9phm-5l3cDTvpldQSCSM-15" value="Validasi tanggal" style="rhombus;whiteSpace=wrap;html=1;" vertex="1" parent="1">
          <mxGeometry x="135" y="625" width="130" height="110" as="geometry" />
        </mxCell>
        <mxCell id="9phm-5l3cDTvpldQSCSM-17" value="" style="endArrow=classic;html=1;rounded=0;exitX=0.5;exitY=1;exitDx=0;exitDy=0;" edge="1" parent="1">
          <mxGeometry width="50" height="50" relative="1" as="geometry">
            <mxPoint x="199.78000000000003" y="735" as="sourcePoint" />
            <mxPoint x="200.2" y="770" as="targetPoint" />
          </mxGeometry>
        </mxCell>
        <mxCell id="9phm-5l3cDTvpldQSCSM-18" value="Valid" style="text;html=1;align=center;verticalAlign=middle;resizable=0;points=[];autosize=1;strokeColor=none;fillColor=none;" vertex="1" parent="1">
          <mxGeometry x="190" y="735" width="50" height="30" as="geometry" />
        </mxCell>
        <mxCell id="9phm-5l3cDTvpldQSCSM-19" value="Menentukan jumlah tiket&amp;nbsp;&lt;br&gt;dan jenis penumpang" style="shape=parallelogram;perimeter=parallelogramPerimeter;whiteSpace=wrap;html=1;fixedSize=1;" vertex="1" parent="1">
          <mxGeometry x="120" y="780" width="160" height="60" as="geometry" />
        </mxCell>
        <mxCell id="9phm-5l3cDTvpldQSCSM-20" value="" style="endArrow=classic;html=1;rounded=0;exitX=0.5;exitY=1;exitDx=0;exitDy=0;" edge="1" parent="1">
          <mxGeometry width="50" height="50" relative="1" as="geometry">
            <mxPoint x="199.77999999999992" y="840" as="sourcePoint" />
            <mxPoint x="199.77999999999992" y="891" as="targetPoint" />
          </mxGeometry>
        </mxCell>
        <mxCell id="9phm-5l3cDTvpldQSCSM-21" value="Memilih kelas&amp;nbsp;&lt;br&gt;penerbangan&amp;nbsp;" style="shape=parallelogram;perimeter=parallelogramPerimeter;whiteSpace=wrap;html=1;fixedSize=1;" vertex="1" parent="1">
          <mxGeometry x="120" y="900" width="160" height="60" as="geometry" />
        </mxCell>
        <mxCell id="9phm-5l3cDTvpldQSCSM-22" value="" style="endArrow=classic;html=1;rounded=0;exitX=0.5;exitY=1;exitDx=0;exitDy=0;" edge="1" parent="1">
          <mxGeometry width="50" height="50" relative="1" as="geometry">
            <mxPoint x="199.77999999999997" y="960" as="sourcePoint" />
            <mxPoint x="199.77999999999997" y="1011" as="targetPoint" />
          </mxGeometry>
        </mxCell>
        <mxCell id="9phm-5l3cDTvpldQSCSM-24" value="Perhitungan total bayar" style="rounded=0;whiteSpace=wrap;html=1;" vertex="1" parent="1">
          <mxGeometry x="130" y="1020" width="150" height="60" as="geometry" />
        </mxCell>
        <mxCell id="9phm-5l3cDTvpldQSCSM-25" value="" style="endArrow=classic;html=1;rounded=0;exitX=0.5;exitY=1;exitDx=0;exitDy=0;" edge="1" parent="1">
          <mxGeometry width="50" height="50" relative="1" as="geometry">
            <mxPoint x="199.73999999999998" y="1080" as="sourcePoint" />
            <mxPoint x="199.73999999999998" y="1131" as="targetPoint" />
          </mxGeometry>
        </mxCell>
        <mxCell id="9phm-5l3cDTvpldQSCSM-27" value="Setuju atau&amp;nbsp;&lt;br&gt;batal" style="rhombus;whiteSpace=wrap;html=1;" vertex="1" parent="1">
          <mxGeometry x="135" y="1145" width="130" height="110" as="geometry" />
        </mxCell>
        <mxCell id="9phm-5l3cDTvpldQSCSM-31" value="" style="edgeStyle=elbowEdgeStyle;elbow=vertical;endArrow=classic;html=1;rounded=0;" edge="1" parent="1">
          <mxGeometry width="50" height="50" relative="1" as="geometry">
            <mxPoint x="200" y="1280" as="sourcePoint" />
            <mxPoint x="360" y="1330" as="targetPoint" />
            <Array as="points">
              <mxPoint x="280" y="1280" />
            </Array>
          </mxGeometry>
        </mxCell>
        <mxCell id="9phm-5l3cDTvpldQSCSM-32" value="" style="edgeStyle=elbowEdgeStyle;elbow=vertical;endArrow=classic;html=1;rounded=0;" edge="1" parent="1">
          <mxGeometry width="50" height="50" relative="1" as="geometry">
            <mxPoint x="200" y="1255" as="sourcePoint" />
            <mxPoint x="40" y="1330" as="targetPoint" />
            <Array as="points">
              <mxPoint x="160" y="1280" />
            </Array>
          </mxGeometry>
        </mxCell>
        <mxCell id="9phm-5l3cDTvpldQSCSM-43" value="Setuju" style="shape=parallelogram;perimeter=parallelogramPerimeter;whiteSpace=wrap;html=1;fixedSize=1;" vertex="1" parent="1">
          <mxGeometry x="280" y="1340" width="160" height="60" as="geometry" />
        </mxCell>
        <mxCell id="9phm-5l3cDTvpldQSCSM-44" value="Batal" style="shape=parallelogram;perimeter=parallelogramPerimeter;whiteSpace=wrap;html=1;fixedSize=1;" vertex="1" parent="1">
          <mxGeometry x="-40" y="1340" width="160" height="60" as="geometry" />
        </mxCell>
        <mxCell id="9phm-5l3cDTvpldQSCSM-47" value="" style="edgeStyle=elbowEdgeStyle;elbow=horizontal;endArrow=classic;html=1;rounded=0;" edge="1" parent="1">
          <mxGeometry width="50" height="50" relative="1" as="geometry">
            <mxPoint x="360" y="1400" as="sourcePoint" />
            <mxPoint x="300" y="1640" as="targetPoint" />
            <Array as="points">
              <mxPoint x="360" y="1570" />
            </Array>
          </mxGeometry>
        </mxCell>
        <mxCell id="9phm-5l3cDTvpldQSCSM-48" value="Selesai" style="ellipse;whiteSpace=wrap;html=1;" vertex="1" parent="1">
          <mxGeometry x="120" y="1592" width="160" height="80" as="geometry" />
        </mxCell>
        <mxCell id="9phm-5l3cDTvpldQSCSM-50" value="" style="endArrow=classic;html=1;rounded=0;exitX=0.5;exitY=1;exitDx=0;exitDy=0;" edge="1" parent="1">
          <mxGeometry width="50" height="50" relative="1" as="geometry">
            <mxPoint x="39.68999999999994" y="1400" as="sourcePoint" />
            <mxPoint x="40" y="1450" as="targetPoint" />
          </mxGeometry>
        </mxCell>
        <mxCell id="9phm-5l3cDTvpldQSCSM-51" value="Mengulangi atau&amp;nbsp;&lt;br&gt;selesai" style="rhombus;whiteSpace=wrap;html=1;" vertex="1" parent="1">
          <mxGeometry x="-25" y="1465" width="130" height="110" as="geometry" />
        </mxCell>
        <mxCell id="9phm-5l3cDTvpldQSCSM-52" value="" style="edgeStyle=elbowEdgeStyle;elbow=horizontal;endArrow=classic;html=1;rounded=0;" edge="1" parent="1">
          <mxGeometry width="50" height="50" relative="1" as="geometry">
            <mxPoint x="40" y="1575" as="sourcePoint" />
            <mxPoint x="100" y="1640" as="targetPoint" />
            <Array as="points">
              <mxPoint x="40" y="1617" />
            </Array>
          </mxGeometry>
        </mxCell>
        <mxCell id="9phm-5l3cDTvpldQSCSM-53" value="" style="edgeStyle=elbowEdgeStyle;elbow=horizontal;endArrow=classic;html=1;rounded=0;exitX=0.038;exitY=0.5;exitDx=0;exitDy=0;exitPerimeter=0;" edge="1" parent="1">
          <mxGeometry width="50" height="50" relative="1" as="geometry">
            <mxPoint x="-25.060000000000173" y="1520" as="sourcePoint" />
            <mxPoint x="175" y="40" as="targetPoint" />
            <Array as="points">
              <mxPoint x="-55" y="870" />
            </Array>
          </mxGeometry>
        </mxCell>
        <mxCell id="9phm-5l3cDTvpldQSCSM-54" value="Satu arah&amp;nbsp;" style="shape=parallelogram;perimeter=parallelogramPerimeter;whiteSpace=wrap;html=1;fixedSize=1;" vertex="1" parent="1">
          <mxGeometry x="360" y="340" width="160" height="60" as="geometry" />
        </mxCell>
        <mxCell id="9phm-5l3cDTvpldQSCSM-55" value="Mengisi tanggal, bulan&lt;br&gt;dan tahun keberangkatan&lt;br&gt;saja&amp;nbsp;" style="shape=parallelogram;perimeter=parallelogramPerimeter;whiteSpace=wrap;html=1;fixedSize=1;" vertex="1" parent="1">
          <mxGeometry x="360" y="460" width="160" height="100" as="geometry" />
        </mxCell>
        <mxCell id="9phm-5l3cDTvpldQSCSM-56" value="" style="endArrow=classic;html=1;rounded=0;exitX=0.5;exitY=1;exitDx=0;exitDy=0;" edge="1" parent="1">
          <mxGeometry width="50" height="50" relative="1" as="geometry">
            <mxPoint x="439.9999999999999" y="399.9999999999998" as="sourcePoint" />
            <mxPoint x="439.9999999999999" y="451" as="targetPoint" />
          </mxGeometry>
        </mxCell>
        <mxCell id="9phm-5l3cDTvpldQSCSM-57" value="" style="edgeStyle=elbowEdgeStyle;elbow=vertical;endArrow=classic;html=1;rounded=0;exitX=0.5;exitY=1;exitDx=0;exitDy=0;" edge="1" parent="1" source="9phm-5l3cDTvpldQSCSM-55">
          <mxGeometry width="50" height="50" relative="1" as="geometry">
            <mxPoint x="440" y="600" as="sourcePoint" />
            <mxPoint x="280" y="810" as="targetPoint" />
            <Array as="points">
              <mxPoint x="440" y="810" />
            </Array>
          </mxGeometry>
        </mxCell>
        <mxCell id="9phm-5l3cDTvpldQSCSM-61" value="" style="endArrow=none;html=1;rounded=0;" edge="1" parent="1">
          <mxGeometry width="50" height="50" relative="1" as="geometry">
            <mxPoint x="80" y="680" as="sourcePoint" />
            <mxPoint x="135" y="680" as="targetPoint" />
          </mxGeometry>
        </mxCell>
        <mxCell id="9phm-5l3cDTvpldQSCSM-62" value="" style="endArrow=none;html=1;rounded=0;" edge="1" parent="1">
          <mxGeometry width="50" height="50" relative="1" as="geometry">
            <mxPoint x="80" y="680" as="sourcePoint" />
            <mxPoint x="80" y="520" as="targetPoint" />
          </mxGeometry>
        </mxCell>
        <mxCell id="9phm-5l3cDTvpldQSCSM-63" value="" style="endArrow=classic;html=1;rounded=0;" edge="1" parent="1">
          <mxGeometry width="50" height="50" relative="1" as="geometry">
            <mxPoint x="80" y="520" as="sourcePoint" />
            <mxPoint x="120" y="520" as="targetPoint" />
          </mxGeometry>
        </mxCell>
        <mxCell id="9phm-5l3cDTvpldQSCSM-64" value="Tidak Valid" style="text;html=1;align=center;verticalAlign=middle;resizable=0;points=[];autosize=1;strokeColor=none;fillColor=none;rotation=270;" vertex="1" parent="1">
          <mxGeometry x="30" y="625" width="80" height="30" as="geometry" />
        </mxCell>
      </root>
    </mxGraphModel>
  </diagram>
  <diagram id="0NisFsTTbS_IojufabZb" name="Page-5">
    <mxGraphModel dx="1434" dy="780" grid="1" gridSize="10" guides="1" tooltips="1" connect="1" arrows="1" fold="1" page="1" pageScale="1" pageWidth="850" pageHeight="1100" background="#ffffff" math="0" shadow="0">
      <root>
        <mxCell id="0" />
        <mxCell id="1" parent="0" />
        <mxCell id="5tYa2flWt76zjcye09MV-1" value="" style="endArrow=none;html=1;rounded=0;" parent="1" edge="1">
          <mxGeometry width="50" height="50" relative="1" as="geometry">
            <mxPoint x="200" y="200" as="sourcePoint" />
            <mxPoint x="280" y="120" as="targetPoint" />
          </mxGeometry>
        </mxCell>
        <mxCell id="5tYa2flWt76zjcye09MV-2" value="" style="endArrow=none;html=1;rounded=0;" parent="1" edge="1">
          <mxGeometry width="50" height="50" relative="1" as="geometry">
            <mxPoint x="280" y="120" as="sourcePoint" />
            <mxPoint x="440" y="120" as="targetPoint" />
          </mxGeometry>
        </mxCell>
        <mxCell id="5tYa2flWt76zjcye09MV-3" value="" style="endArrow=none;html=1;rounded=0;" parent="1" edge="1">
          <mxGeometry width="50" height="50" relative="1" as="geometry">
            <mxPoint x="440" y="120" as="sourcePoint" />
            <mxPoint x="520" y="200" as="targetPoint" />
          </mxGeometry>
        </mxCell>
        <mxCell id="5tYa2flWt76zjcye09MV-4" value="" style="endArrow=none;html=1;rounded=0;" parent="1" edge="1">
          <mxGeometry width="50" height="50" relative="1" as="geometry">
            <mxPoint x="360" y="480" as="sourcePoint" />
            <mxPoint x="520" y="200" as="targetPoint" />
          </mxGeometry>
        </mxCell>
        <mxCell id="5tYa2flWt76zjcye09MV-6" value="" style="endArrow=none;html=1;rounded=0;" parent="1" edge="1">
          <mxGeometry width="50" height="50" relative="1" as="geometry">
            <mxPoint x="360" y="490" as="sourcePoint" />
            <mxPoint x="200" y="200" as="targetPoint" />
          </mxGeometry>
        </mxCell>
        <mxCell id="5tYa2flWt76zjcye09MV-7" value="" style="endArrow=none;html=1;rounded=0;" parent="1" edge="1">
          <mxGeometry width="50" height="50" relative="1" as="geometry">
            <mxPoint x="360" y="480" as="sourcePoint" />
            <mxPoint x="360" y="120" as="targetPoint" />
          </mxGeometry>
        </mxCell>
      </root>
    </mxGraphModel>
  </diagram>
  <diagram id="SSg6qOPQAe-7OfIJq63i" name="Page-6">
    <mxGraphModel dx="1247" dy="678" grid="1" gridSize="10" guides="1" tooltips="1" connect="1" arrows="1" fold="1" page="1" pageScale="1" pageWidth="850" pageHeight="1100" math="0" shadow="0">
      <root>
        <mxCell id="0" />
        <mxCell id="1" parent="0" />
        <mxCell id="pQlaXe8Y4_zJN44WEb3q-2" value="Mulai" style="strokeWidth=2;html=1;shape=mxgraph.flowchart.start_1;whiteSpace=wrap;" vertex="1" parent="1">
          <mxGeometry x="350" y="60" width="100" height="60" as="geometry" />
        </mxCell>
        <mxCell id="pQlaXe8Y4_zJN44WEb3q-3" value="" style="edgeStyle=segmentEdgeStyle;endArrow=classic;html=1;curved=0;rounded=0;endSize=8;startSize=8;" edge="1" parent="1">
          <mxGeometry width="50" height="50" relative="1" as="geometry">
            <mxPoint x="400" y="120" as="sourcePoint" />
            <mxPoint x="400" y="200" as="targetPoint" />
          </mxGeometry>
        </mxCell>
        <mxCell id="pQlaXe8Y4_zJN44WEb3q-4" value="Datang ke Bagian Pendaftaran" style="rounded=1;whiteSpace=wrap;html=1;absoluteArcSize=1;arcSize=14;strokeWidth=2;" vertex="1" parent="1">
          <mxGeometry x="280" y="210" width="240" height="40" as="geometry" />
        </mxCell>
        <mxCell id="pQlaXe8Y4_zJN44WEb3q-6" value="" style="edgeStyle=segmentEdgeStyle;endArrow=classic;html=1;curved=0;rounded=0;endSize=8;startSize=8;exitX=0.5;exitY=1;exitDx=0;exitDy=0;" edge="1" parent="1" source="pQlaXe8Y4_zJN44WEb3q-4">
          <mxGeometry width="50" height="50" relative="1" as="geometry">
            <mxPoint x="480" y="400" as="sourcePoint" />
            <mxPoint x="400" y="320" as="targetPoint" />
          </mxGeometry>
        </mxCell>
        <mxCell id="pQlaXe8Y4_zJN44WEb3q-7" value="Membeli Formulir" style="shape=parallelogram;html=1;strokeWidth=2;perimeter=parallelogramPerimeter;whiteSpace=wrap;rounded=1;arcSize=12;size=0.23;" vertex="1" parent="1">
          <mxGeometry x="280" y="330" width="240" height="50" as="geometry" />
        </mxCell>
        <mxCell id="pQlaXe8Y4_zJN44WEb3q-9" value="" style="edgeStyle=segmentEdgeStyle;endArrow=classic;html=1;curved=0;rounded=0;endSize=8;startSize=8;exitX=0.5;exitY=1;exitDx=0;exitDy=0;" edge="1" parent="1" source="pQlaXe8Y4_zJN44WEb3q-7">
          <mxGeometry width="50" height="50" relative="1" as="geometry">
            <mxPoint x="480" y="400" as="sourcePoint" />
            <mxPoint x="400" y="440" as="targetPoint" />
          </mxGeometry>
        </mxCell>
        <mxCell id="pQlaXe8Y4_zJN44WEb3q-10" value="Mengikuti Tes" style="shape=parallelogram;html=1;strokeWidth=2;perimeter=parallelogramPerimeter;whiteSpace=wrap;rounded=1;arcSize=12;size=0.23;" vertex="1" parent="1">
          <mxGeometry x="280" y="450" width="240" height="50" as="geometry" />
        </mxCell>
        <mxCell id="pQlaXe8Y4_zJN44WEb3q-12" value="" style="edgeStyle=segmentEdgeStyle;endArrow=classic;html=1;curved=0;rounded=0;endSize=8;startSize=8;exitX=0.5;exitY=1;exitDx=0;exitDy=0;" edge="1" parent="1" source="pQlaXe8Y4_zJN44WEb3q-10">
          <mxGeometry width="50" height="50" relative="1" as="geometry">
            <mxPoint x="480" y="400" as="sourcePoint" />
            <mxPoint x="400" y="560" as="targetPoint" />
          </mxGeometry>
        </mxCell>
        <mxCell id="pQlaXe8Y4_zJN44WEb3q-15" value="Mengumpulkan Persyaratan" style="shape=parallelogram;html=1;strokeWidth=2;perimeter=parallelogramPerimeter;whiteSpace=wrap;rounded=1;arcSize=12;size=0.23;" vertex="1" parent="1">
          <mxGeometry x="280" y="570" width="240" height="50" as="geometry" />
        </mxCell>
        <mxCell id="pQlaXe8Y4_zJN44WEb3q-16" value="" style="edgeStyle=segmentEdgeStyle;endArrow=classic;html=1;curved=0;rounded=0;endSize=8;startSize=8;exitX=0.5;exitY=1;exitDx=0;exitDy=0;" edge="1" parent="1" source="pQlaXe8Y4_zJN44WEb3q-15">
          <mxGeometry width="50" height="50" relative="1" as="geometry">
            <mxPoint x="480" y="400" as="sourcePoint" />
            <mxPoint x="400" y="680" as="targetPoint" />
          </mxGeometry>
        </mxCell>
        <mxCell id="pQlaXe8Y4_zJN44WEb3q-18" value="Menyerahkan Persyaratan" style="rounded=1;whiteSpace=wrap;html=1;absoluteArcSize=1;arcSize=14;strokeWidth=2;" vertex="1" parent="1">
          <mxGeometry x="280" y="690" width="240" height="40" as="geometry" />
        </mxCell>
        <mxCell id="pQlaXe8Y4_zJN44WEb3q-19" value="" style="edgeStyle=segmentEdgeStyle;endArrow=classic;html=1;curved=0;rounded=0;endSize=8;startSize=8;exitX=0.5;exitY=1;exitDx=0;exitDy=0;" edge="1" parent="1" source="pQlaXe8Y4_zJN44WEb3q-18">
          <mxGeometry width="50" height="50" relative="1" as="geometry">
            <mxPoint x="480" y="650" as="sourcePoint" />
            <mxPoint x="400" y="800" as="targetPoint" />
          </mxGeometry>
        </mxCell>
        <mxCell id="pQlaXe8Y4_zJN44WEb3q-20" value="Lengkap atau Belum" style="strokeWidth=2;html=1;shape=mxgraph.flowchart.decision;whiteSpace=wrap;" vertex="1" parent="1">
          <mxGeometry x="280" y="810" width="240" height="110" as="geometry" />
        </mxCell>
        <mxCell id="pQlaXe8Y4_zJN44WEb3q-21" value="" style="edgeStyle=segmentEdgeStyle;endArrow=classic;html=1;curved=0;rounded=0;endSize=8;startSize=8;exitX=0.5;exitY=1;exitDx=0;exitDy=0;exitPerimeter=0;" edge="1" parent="1" source="pQlaXe8Y4_zJN44WEb3q-20">
          <mxGeometry width="50" height="50" relative="1" as="geometry">
            <mxPoint x="490" y="860" as="sourcePoint" />
            <mxPoint x="400" y="970" as="targetPoint" />
          </mxGeometry>
        </mxCell>
        <mxCell id="pQlaXe8Y4_zJN44WEb3q-22" value="Pengumuman Penerimaan Peserta Didik" style="rounded=1;whiteSpace=wrap;html=1;absoluteArcSize=1;arcSize=14;strokeWidth=2;" vertex="1" parent="1">
          <mxGeometry x="280" y="980" width="240" height="40" as="geometry" />
        </mxCell>
        <mxCell id="pQlaXe8Y4_zJN44WEb3q-23" value="" style="edgeStyle=segmentEdgeStyle;endArrow=classic;html=1;curved=0;rounded=0;endSize=8;startSize=8;exitX=0.5;exitY=1;exitDx=0;exitDy=0;" edge="1" parent="1" source="pQlaXe8Y4_zJN44WEb3q-22">
          <mxGeometry width="50" height="50" relative="1" as="geometry">
            <mxPoint x="490" y="1110" as="sourcePoint" />
            <mxPoint x="400" y="1080" as="targetPoint" />
          </mxGeometry>
        </mxCell>
        <mxCell id="pQlaXe8Y4_zJN44WEb3q-24" value="Mengikuti Orientasi" style="rounded=1;whiteSpace=wrap;html=1;absoluteArcSize=1;arcSize=14;strokeWidth=2;" vertex="1" parent="1">
          <mxGeometry x="280" y="1090" width="240" height="40" as="geometry" />
        </mxCell>
        <mxCell id="pQlaXe8Y4_zJN44WEb3q-25" value="" style="edgeStyle=segmentEdgeStyle;endArrow=classic;html=1;curved=0;rounded=0;endSize=8;startSize=8;exitX=0.5;exitY=1;exitDx=0;exitDy=0;" edge="1" parent="1" source="pQlaXe8Y4_zJN44WEb3q-24">
          <mxGeometry width="50" height="50" relative="1" as="geometry">
            <mxPoint x="490" y="1110" as="sourcePoint" />
            <mxPoint x="400" y="1200" as="targetPoint" />
          </mxGeometry>
        </mxCell>
        <mxCell id="pQlaXe8Y4_zJN44WEb3q-26" value="Sekolah" style="rounded=1;whiteSpace=wrap;html=1;absoluteArcSize=1;arcSize=14;strokeWidth=2;" vertex="1" parent="1">
          <mxGeometry x="280" y="1210" width="240" height="40" as="geometry" />
        </mxCell>
        <mxCell id="pQlaXe8Y4_zJN44WEb3q-27" value="" style="edgeStyle=segmentEdgeStyle;endArrow=classic;html=1;curved=0;rounded=0;endSize=8;startSize=8;exitX=0.5;exitY=1;exitDx=0;exitDy=0;" edge="1" parent="1" source="pQlaXe8Y4_zJN44WEb3q-26">
          <mxGeometry width="50" height="50" relative="1" as="geometry">
            <mxPoint x="490" y="1110" as="sourcePoint" />
            <mxPoint x="400" y="1320" as="targetPoint" />
          </mxGeometry>
        </mxCell>
        <mxCell id="pQlaXe8Y4_zJN44WEb3q-28" value="Selesai" style="strokeWidth=2;html=1;shape=mxgraph.flowchart.terminator;whiteSpace=wrap;" vertex="1" parent="1">
          <mxGeometry x="320" y="1330" width="160" height="60" as="geometry" />
        </mxCell>
        <mxCell id="pQlaXe8Y4_zJN44WEb3q-29" value="" style="edgeStyle=elbowEdgeStyle;elbow=horizontal;endArrow=classic;html=1;curved=0;rounded=0;endSize=8;startSize=8;exitX=1;exitY=0.5;exitDx=0;exitDy=0;exitPerimeter=0;" edge="1" parent="1" source="pQlaXe8Y4_zJN44WEb3q-20">
          <mxGeometry width="50" height="50" relative="1" as="geometry">
            <mxPoint x="520" y="870" as="sourcePoint" />
            <mxPoint x="410" y="530" as="targetPoint" />
            <Array as="points">
              <mxPoint x="560" y="690" />
            </Array>
          </mxGeometry>
        </mxCell>
      </root>
    </mxGraphModel>
  </diagram>
  <diagram id="QK4OWK0U0bcn2Q-WbQL3" name="Page-7">
    <mxGraphModel dx="1247" dy="678" grid="1" gridSize="10" guides="1" tooltips="1" connect="1" arrows="1" fold="1" page="1" pageScale="1" pageWidth="850" pageHeight="1100" math="0" shadow="0">
      <root>
        <mxCell id="0" />
        <mxCell id="1" parent="0" />
        <mxCell id="Wi_rcEpUpskVCFE7J_Gu-1" value="Start" style="strokeWidth=2;html=1;shape=mxgraph.flowchart.start_1;whiteSpace=wrap;" vertex="1" parent="1">
          <mxGeometry x="320" y="60" width="160" height="60" as="geometry" />
        </mxCell>
        <mxCell id="Wi_rcEpUpskVCFE7J_Gu-3" value="input panjang" style="shape=parallelogram;html=1;strokeWidth=2;perimeter=parallelogramPerimeter;whiteSpace=wrap;rounded=1;arcSize=12;size=0.23;" vertex="1" parent="1">
          <mxGeometry x="320" y="190" width="160" height="50" as="geometry" />
        </mxCell>
        <mxCell id="Wi_rcEpUpskVCFE7J_Gu-7" value="input lebar" style="shape=parallelogram;html=1;strokeWidth=2;perimeter=parallelogramPerimeter;whiteSpace=wrap;rounded=1;arcSize=12;size=0.23;" vertex="1" parent="1">
          <mxGeometry x="320" y="310" width="160" height="50" as="geometry" />
        </mxCell>
        <mxCell id="Wi_rcEpUpskVCFE7J_Gu-9" value="Luas = p*l" style="rounded=1;whiteSpace=wrap;html=1;absoluteArcSize=1;arcSize=14;strokeWidth=2;" vertex="1" parent="1">
          <mxGeometry x="320" y="430" width="160" height="40" as="geometry" />
        </mxCell>
        <mxCell id="Wi_rcEpUpskVCFE7J_Gu-10" value="" style="edgeStyle=segmentEdgeStyle;endArrow=classic;html=1;curved=0;rounded=0;endSize=8;startSize=8;exitX=0.5;exitY=1;exitDx=0;exitDy=0;" edge="1" parent="1" source="Wi_rcEpUpskVCFE7J_Gu-9">
          <mxGeometry width="50" height="50" relative="1" as="geometry">
            <mxPoint x="380" y="330" as="sourcePoint" />
            <mxPoint x="400" y="530" as="targetPoint" />
          </mxGeometry>
        </mxCell>
        <mxCell id="Wi_rcEpUpskVCFE7J_Gu-11" value="" style="edgeStyle=segmentEdgeStyle;endArrow=classic;html=1;curved=0;rounded=0;endSize=8;startSize=8;exitX=0.5;exitY=1;exitDx=0;exitDy=0;exitPerimeter=0;" edge="1" parent="1" source="Wi_rcEpUpskVCFE7J_Gu-1">
          <mxGeometry width="50" height="50" relative="1" as="geometry">
            <mxPoint x="400" y="390" as="sourcePoint" />
            <mxPoint x="400" y="170" as="targetPoint" />
          </mxGeometry>
        </mxCell>
        <mxCell id="Wi_rcEpUpskVCFE7J_Gu-12" value="" style="edgeStyle=segmentEdgeStyle;endArrow=classic;html=1;curved=0;rounded=0;endSize=8;startSize=8;exitX=0.5;exitY=1;exitDx=0;exitDy=0;" edge="1" parent="1" source="Wi_rcEpUpskVCFE7J_Gu-3">
          <mxGeometry width="50" height="50" relative="1" as="geometry">
            <mxPoint x="400" y="390" as="sourcePoint" />
            <mxPoint x="400" y="290" as="targetPoint" />
          </mxGeometry>
        </mxCell>
        <mxCell id="Wi_rcEpUpskVCFE7J_Gu-14" value="" style="edgeStyle=segmentEdgeStyle;endArrow=classic;html=1;curved=0;rounded=0;endSize=8;startSize=8;exitX=0.5;exitY=1;exitDx=0;exitDy=0;" edge="1" parent="1" source="Wi_rcEpUpskVCFE7J_Gu-7">
          <mxGeometry width="50" height="50" relative="1" as="geometry">
            <mxPoint x="400" y="390" as="sourcePoint" />
            <mxPoint x="400" y="410" as="targetPoint" />
          </mxGeometry>
        </mxCell>
        <mxCell id="Wi_rcEpUpskVCFE7J_Gu-15" value="Tampilkan Luas" style="shape=parallelogram;html=1;strokeWidth=2;perimeter=parallelogramPerimeter;whiteSpace=wrap;rounded=1;arcSize=12;size=0.23;" vertex="1" parent="1">
          <mxGeometry x="320" y="550" width="160" height="50" as="geometry" />
        </mxCell>
        <mxCell id="Wi_rcEpUpskVCFE7J_Gu-16" value="" style="edgeStyle=segmentEdgeStyle;endArrow=classic;html=1;curved=0;rounded=0;endSize=8;startSize=8;exitX=0.5;exitY=1;exitDx=0;exitDy=0;" edge="1" parent="1" source="Wi_rcEpUpskVCFE7J_Gu-15">
          <mxGeometry width="50" height="50" relative="1" as="geometry">
            <mxPoint x="400" y="390" as="sourcePoint" />
            <mxPoint x="400" y="650" as="targetPoint" />
          </mxGeometry>
        </mxCell>
        <mxCell id="Wi_rcEpUpskVCFE7J_Gu-17" value="Selesai" style="strokeWidth=2;html=1;shape=mxgraph.flowchart.terminator;whiteSpace=wrap;" vertex="1" parent="1">
          <mxGeometry x="320" y="680" width="155" height="40" as="geometry" />
        </mxCell>
      </root>
    </mxGraphModel>
  </diagram>
</mxfile>
